<svg xmlns="http://www.w3.org/2000/svg" viewBox="0 0 457.6 349.5">
  <path fill="#63d1bb" stroke="#fff" stroke-miterlimit="10" stroke-width="25" d="M440.7 82.5s-4.2-31.9-17.2-45.8C407 18.3 388.6 18.2 380.1 17c-60.5-4.6-151.4-4.6-151.4-4.6h-.2s-90.8 0-151.4 4.7c-8.4 1-26.8 1.1-43.3 19.5-13 14-17.2 45.8-17.2 45.8s-4.1 37.3-4.1 74.6v35a747.3 747.3 0 004.3 74.7S21 298.6 34 312.6c16.5 18.4 38 17.8 47.7 19.8 34.6 3.4 147 4.6 147 4.6s91-.1 151.6-4.8c8.4-1 26.8-1.1 43.3-19.5 13-14 17.2-45.8 17.2-45.8a747.3 747.3 0 004.3-74.6v-35c-.1-37.5-4.4-74.8-4.4-74.8z" data-name="Laag 1"/>
  <path fill="#fff" d="M174.7 93.5v162.3l135.2-81.1-135.2-81.2z" data-name="Layer 2"/>
</svg>
